<mxfile host="app.diagrams.net" agent="Mozilla/5.0 (Macintosh; Intel Mac OS X 10_15_7) AppleWebKit/537.36 (KHTML, like Gecko) Chrome/134.0.0.0 Safari/537.36 Edg/134.0.0.0" version="26.2.14">
  <diagram name="Página-1" id="4OTmXY2Rh0phOZ1CV6iW">
    <mxGraphModel dx="4019" dy="1845" grid="1" gridSize="10" guides="1" tooltips="1" connect="1" arrows="1" fold="1" page="1" pageScale="1" pageWidth="827" pageHeight="1169" math="0" shadow="0">
      <root>
        <mxCell id="0" />
        <mxCell id="1" parent="0" />
        <mxCell id="7UEIV4KV4VF5LxMRAz7w-19" value="" style="rounded=0;whiteSpace=wrap;html=1;" parent="1" vertex="1">
          <mxGeometry x="-620" y="30" width="460" height="255" as="geometry" />
        </mxCell>
        <mxCell id="syVXaHFY9ad1_4dyUhUQ-4" value="" style="rounded=0;whiteSpace=wrap;html=1;" parent="1" vertex="1">
          <mxGeometry x="490" y="30" width="1340" height="710" as="geometry" />
        </mxCell>
        <mxCell id="syVXaHFY9ad1_4dyUhUQ-6" value="&lt;h1&gt;Project&lt;/h1&gt;" style="text;html=1;align=center;verticalAlign=middle;whiteSpace=wrap;rounded=0;fontSize=18;" parent="1" vertex="1">
          <mxGeometry x="1095" y="75" width="130" height="30" as="geometry" />
        </mxCell>
        <mxCell id="syVXaHFY9ad1_4dyUhUQ-55" value="" style="rounded=0;whiteSpace=wrap;html=1;" parent="1" vertex="1">
          <mxGeometry x="1980" y="30" width="140" height="120" as="geometry" />
        </mxCell>
        <mxCell id="syVXaHFY9ad1_4dyUhUQ-56" value="&lt;h1&gt;Users1&lt;/h1&gt;" style="text;html=1;align=center;verticalAlign=middle;whiteSpace=wrap;rounded=0;" parent="1" vertex="1">
          <mxGeometry x="2020" y="50" width="60" height="30" as="geometry" />
        </mxCell>
        <mxCell id="MFJId0UJbE_y7SjFGPqC-90" value="&lt;p&gt;&lt;/p&gt;&lt;span style=&quot;background-color: transparent; color: light-dark(rgb(0, 0, 0), rgb(255, 255, 255));&quot;&gt;• createdAt: Date&lt;/span&gt;&lt;div&gt;&lt;span style=&quot;background-color: transparent; color: light-dark(rgb(0, 0, 0), rgb(255, 255, 255));&quot;&gt;• uid: Number&lt;/span&gt;&lt;/div&gt;" style="text;html=1;align=center;verticalAlign=middle;whiteSpace=wrap;rounded=0;" parent="1" vertex="1">
          <mxGeometry x="2000" y="90" width="100" height="30" as="geometry" />
        </mxCell>
        <mxCell id="7UEIV4KV4VF5LxMRAz7w-18" value="&lt;h2&gt;&lt;b&gt;Diagram for firebase NoSQL database&lt;/b&gt;&lt;/h2&gt;&lt;div&gt;What does it contain?&lt;/div&gt;&lt;div&gt;• All the boxes with title are &lt;b&gt;documents&lt;/b&gt;&amp;nbsp;(or array of documents) that contain 1 or more fields.&lt;/div&gt;&lt;div&gt;• Only &lt;b&gt;fields that are&amp;nbsp;references&lt;/b&gt; to other documents are included as bullet points&lt;/div&gt;&lt;div&gt;• Any other field that is not a reference is &lt;b&gt;NOT included&lt;/b&gt;. Check typescript file for that&lt;/div&gt;&lt;div&gt;• &lt;b&gt;Abstracted items*&lt;/b&gt; are represented with a * to avoid repetition&lt;/div&gt;" style="text;html=1;align=left;verticalAlign=top;whiteSpace=wrap;rounded=0;fontSize=14;" parent="1" vertex="1">
          <mxGeometry x="-600" y="45" width="430" height="220" as="geometry" />
        </mxCell>
        <mxCell id="F_IemNpZJ3v2NOJDD-CK-1" value="" style="rounded=0;whiteSpace=wrap;html=1;fillColor=none;dashed=1;dashPattern=8 8;fillStyle=zigzag-line;gradientColor=default;" vertex="1" parent="1">
          <mxGeometry x="-50" y="920" width="510" height="675" as="geometry" />
        </mxCell>
        <mxCell id="F_IemNpZJ3v2NOJDD-CK-2" value="" style="rounded=0;whiteSpace=wrap;html=1;" vertex="1" parent="1">
          <mxGeometry x="500" y="920" width="1430" height="790" as="geometry" />
        </mxCell>
        <mxCell id="F_IemNpZJ3v2NOJDD-CK-3" value="&lt;h1&gt;Project&lt;/h1&gt;" style="text;html=1;align=center;verticalAlign=middle;whiteSpace=wrap;rounded=0;fontSize=18;" vertex="1" parent="1">
          <mxGeometry x="1150" y="950" width="130" height="30" as="geometry" />
        </mxCell>
        <mxCell id="F_IemNpZJ3v2NOJDD-CK-4" value="" style="rounded=0;whiteSpace=wrap;html=1;" vertex="1" parent="1">
          <mxGeometry x="560" y="1230" width="470" height="60" as="geometry" />
        </mxCell>
        <mxCell id="F_IemNpZJ3v2NOJDD-CK-5" value="&lt;h3&gt;Activities&lt;/h3&gt;" style="text;html=1;align=center;verticalAlign=middle;whiteSpace=wrap;rounded=0;" vertex="1" parent="1">
          <mxGeometry x="590" y="1245" width="80" height="30" as="geometry" />
        </mxCell>
        <mxCell id="F_IemNpZJ3v2NOJDD-CK-6" value="" style="rounded=0;whiteSpace=wrap;html=1;" vertex="1" parent="1">
          <mxGeometry x="560" y="1100" width="300" height="110" as="geometry" />
        </mxCell>
        <mxCell id="F_IemNpZJ3v2NOJDD-CK-7" value="" style="rounded=0;whiteSpace=wrap;html=1;" vertex="1" parent="1">
          <mxGeometry x="585" y="1150" width="95" height="45" as="geometry" />
        </mxCell>
        <mxCell id="F_IemNpZJ3v2NOJDD-CK-8" value="Stats" style="text;html=1;align=center;verticalAlign=middle;whiteSpace=wrap;rounded=0;" vertex="1" parent="1">
          <mxGeometry x="602.5" y="1157.5" width="60" height="30" as="geometry" />
        </mxCell>
        <mxCell id="F_IemNpZJ3v2NOJDD-CK-9" value="&lt;h3&gt;Users&lt;/h3&gt;" style="text;html=1;align=center;verticalAlign=middle;whiteSpace=wrap;rounded=0;" vertex="1" parent="1">
          <mxGeometry x="602.5" y="1110" width="60" height="30" as="geometry" />
        </mxCell>
        <mxCell id="F_IemNpZJ3v2NOJDD-CK-10" value="" style="rounded=0;whiteSpace=wrap;html=1;" vertex="1" parent="1">
          <mxGeometry x="560" y="1310" width="470" height="60" as="geometry" />
        </mxCell>
        <mxCell id="F_IemNpZJ3v2NOJDD-CK-11" value="&lt;h3&gt;Requirements&lt;/h3&gt;" style="text;html=1;align=center;verticalAlign=middle;whiteSpace=wrap;rounded=0;" vertex="1" parent="1">
          <mxGeometry x="590" y="1325" width="80" height="30" as="geometry" />
        </mxCell>
        <mxCell id="F_IemNpZJ3v2NOJDD-CK-12" value="" style="rounded=0;whiteSpace=wrap;html=1;" vertex="1" parent="1">
          <mxGeometry x="560" y="1393" width="140" height="60" as="geometry" />
        </mxCell>
        <mxCell id="F_IemNpZJ3v2NOJDD-CK-13" value="&lt;h3&gt;Epics&lt;/h3&gt;" style="text;html=1;align=center;verticalAlign=middle;whiteSpace=wrap;rounded=0;" vertex="1" parent="1">
          <mxGeometry x="590" y="1408" width="80" height="30" as="geometry" />
        </mxCell>
        <mxCell id="F_IemNpZJ3v2NOJDD-CK-14" value="" style="rounded=0;whiteSpace=wrap;html=1;" vertex="1" parent="1">
          <mxGeometry x="1150" y="1100" width="720" height="250" as="geometry" />
        </mxCell>
        <mxCell id="F_IemNpZJ3v2NOJDD-CK-15" value="&lt;h2&gt;Sprint Snapshots&lt;/h2&gt;" style="text;html=1;align=center;verticalAlign=middle;whiteSpace=wrap;rounded=0;" vertex="1" parent="1">
          <mxGeometry x="1385" y="1120" width="250" height="30" as="geometry" />
        </mxCell>
        <mxCell id="F_IemNpZJ3v2NOJDD-CK-16" value="" style="rounded=0;whiteSpace=wrap;html=1;" vertex="1" parent="1">
          <mxGeometry x="1170" y="1170" width="680" height="160" as="geometry" />
        </mxCell>
        <mxCell id="F_IemNpZJ3v2NOJDD-CK-17" value="&lt;h2&gt;Snapshot&lt;/h2&gt;" style="text;html=1;align=center;verticalAlign=middle;whiteSpace=wrap;rounded=0;" vertex="1" parent="1">
          <mxGeometry x="1450" y="1185" width="120" height="30" as="geometry" />
        </mxCell>
        <mxCell id="F_IemNpZJ3v2NOJDD-CK-18" value="" style="rounded=0;whiteSpace=wrap;html=1;" vertex="1" parent="1">
          <mxGeometry x="1150" y="1372.5" width="720" height="274" as="geometry" />
        </mxCell>
        <mxCell id="F_IemNpZJ3v2NOJDD-CK-19" value="" style="rounded=0;whiteSpace=wrap;html=1;" vertex="1" parent="1">
          <mxGeometry x="1197.5" y="1442.5" width="140" height="109" as="geometry" />
        </mxCell>
        <mxCell id="F_IemNpZJ3v2NOJDD-CK-20" value="&lt;h2&gt;Settings&lt;/h2&gt;" style="text;html=1;align=center;verticalAlign=middle;whiteSpace=wrap;rounded=0;" vertex="1" parent="1">
          <mxGeometry x="1385" y="1385.5" width="250" height="30" as="geometry" />
        </mxCell>
        <mxCell id="F_IemNpZJ3v2NOJDD-CK-21" value="&lt;h3&gt;AI Context&lt;/h3&gt;" style="text;html=1;align=center;verticalAlign=middle;whiteSpace=wrap;rounded=0;" vertex="1" parent="1">
          <mxGeometry x="1207.5" y="1452.5" width="120" height="30" as="geometry" />
        </mxCell>
        <mxCell id="F_IemNpZJ3v2NOJDD-CK-22" value="" style="rounded=0;whiteSpace=wrap;html=1;" vertex="1" parent="1">
          <mxGeometry x="1357.5" y="1442.5" width="140" height="109" as="geometry" />
        </mxCell>
        <mxCell id="F_IemNpZJ3v2NOJDD-CK-23" value="&lt;h3&gt;Roles&lt;/h3&gt;" style="text;html=1;align=center;verticalAlign=middle;whiteSpace=wrap;rounded=0;" vertex="1" parent="1">
          <mxGeometry x="1397.5" y="1452.5" width="60" height="30" as="geometry" />
        </mxCell>
        <mxCell id="F_IemNpZJ3v2NOJDD-CK-24" value="" style="rounded=0;whiteSpace=wrap;html=1;" vertex="1" parent="1">
          <mxGeometry x="1382.5" y="1487.5" width="90" height="45" as="geometry" />
        </mxCell>
        <mxCell id="F_IemNpZJ3v2NOJDD-CK-25" value="Tabs" style="text;html=1;align=center;verticalAlign=middle;whiteSpace=wrap;rounded=0;" vertex="1" parent="1">
          <mxGeometry x="1397.5" y="1495" width="60" height="30" as="geometry" />
        </mxCell>
        <mxCell id="F_IemNpZJ3v2NOJDD-CK-26" value="&lt;p&gt;&lt;/p&gt;&lt;span style=&quot;background-color: transparent; color: light-dark(rgb(0, 0, 0), rgb(255, 255, 255));&quot;&gt;• User IDs&lt;/span&gt;&lt;br&gt;&lt;span style=&quot;background-color: transparent; color: light-dark(rgb(0, 0, 0), rgb(255, 255, 255));&quot;&gt;• Role IDs&lt;/span&gt;&lt;span style=&quot;background-color: transparent; color: light-dark(rgb(0, 0, 0), rgb(255, 255, 255));&quot;&gt;&amp;nbsp;&lt;/span&gt;&lt;div&gt;&lt;div&gt;&lt;p&gt;&lt;/p&gt;&lt;/div&gt;&lt;/div&gt;" style="text;html=1;align=left;verticalAlign=middle;whiteSpace=wrap;rounded=0;fontSize=12;spacing=0;spacingBottom=0;horizontal=1;" vertex="1" parent="1">
          <mxGeometry x="752.5" y="1130" width="75" height="50" as="geometry" />
        </mxCell>
        <mxCell id="F_IemNpZJ3v2NOJDD-CK-27" value="&lt;p&gt;&lt;/p&gt;&lt;span style=&quot;background-color: transparent; color: light-dark(rgb(0, 0, 0), rgb(255, 255, 255));&quot;&gt;• Activity ID&lt;/span&gt;&lt;br&gt;&lt;span style=&quot;background-color: transparent; color: light-dark(rgb(0, 0, 0), rgb(255, 255, 255));&quot;&gt;• New Status ID&lt;/span&gt;&lt;div&gt;&lt;div&gt;&lt;p&gt;&lt;/p&gt;&lt;/div&gt;&lt;/div&gt;" style="text;html=1;align=left;verticalAlign=middle;whiteSpace=wrap;rounded=0;fontSize=12;spacing=0;spacingBottom=0;horizontal=1;" vertex="1" parent="1">
          <mxGeometry x="745" y="1235" width="90" height="50" as="geometry" />
        </mxCell>
        <mxCell id="F_IemNpZJ3v2NOJDD-CK-28" value="&lt;p&gt;&lt;/p&gt;&lt;span style=&quot;background-color: transparent; color: light-dark(rgb(0, 0, 0), rgb(255, 255, 255));&quot;&gt;• User ID&lt;/span&gt;&lt;div&gt;&lt;span style=&quot;background-color: transparent; color: light-dark(rgb(0, 0, 0), rgb(255, 255, 255));&quot;&gt;&amp;nbsp;&lt;/span&gt;&lt;br&gt;&lt;div&gt;&lt;div&gt;&lt;p&gt;&lt;/p&gt;&lt;/div&gt;&lt;/div&gt;&lt;/div&gt;" style="text;html=1;align=left;verticalAlign=middle;whiteSpace=wrap;rounded=0;fontSize=12;spacing=0;spacingBottom=0;horizontal=1;" vertex="1" parent="1">
          <mxGeometry x="900" y="1235" width="90" height="50" as="geometry" />
        </mxCell>
        <mxCell id="F_IemNpZJ3v2NOJDD-CK-29" value="&lt;p&gt;&lt;/p&gt;&lt;span style=&quot;background-color: transparent; color: light-dark(rgb(0, 0, 0), rgb(255, 255, 255));&quot;&gt;• Current Sprint ID&lt;/span&gt;&lt;div&gt;&lt;div&gt;&lt;div&gt;&lt;p&gt;&lt;/p&gt;&lt;/div&gt;&lt;/div&gt;&lt;/div&gt;" style="text;html=1;align=center;verticalAlign=middle;whiteSpace=wrap;rounded=0;fontSize=12;spacing=0;spacingBottom=0;horizontal=1;" vertex="1" parent="1">
          <mxGeometry x="1140" y="990" width="150" height="50" as="geometry" />
        </mxCell>
        <mxCell id="F_IemNpZJ3v2NOJDD-CK-30" value="&lt;p&gt;&lt;/p&gt;&lt;span style=&quot;background-color: transparent; color: light-dark(rgb(0, 0, 0), rgb(255, 255, 255));&quot;&gt;• Priority ID&lt;/span&gt;&lt;br&gt;&lt;span style=&quot;background-color: transparent; color: light-dark(rgb(0, 0, 0), rgb(255, 255, 255));&quot;&gt;• Requirement Type ID&lt;/span&gt;&lt;div&gt;&lt;div&gt;&lt;p&gt;&lt;/p&gt;&lt;/div&gt;&lt;/div&gt;" style="text;html=1;align=left;verticalAlign=middle;whiteSpace=wrap;rounded=0;fontSize=12;spacing=0;spacingBottom=0;horizontal=1;" vertex="1" parent="1">
          <mxGeometry x="745" y="1315" width="90" height="50" as="geometry" />
        </mxCell>
        <mxCell id="F_IemNpZJ3v2NOJDD-CK-31" value="&lt;p&gt;&lt;/p&gt;&lt;span style=&quot;background-color: transparent; color: light-dark(rgb(0, 0, 0), rgb(255, 255, 255));&quot;&gt;• Requirement Focus ID&lt;/span&gt;&lt;div&gt;&lt;span style=&quot;background-color: transparent; color: light-dark(rgb(0, 0, 0), rgb(255, 255, 255));&quot;&gt;&amp;nbsp;&lt;/span&gt;&lt;br&gt;&lt;div&gt;&lt;div&gt;&lt;p&gt;&lt;/p&gt;&lt;/div&gt;&lt;/div&gt;&lt;/div&gt;" style="text;html=1;align=left;verticalAlign=middle;whiteSpace=wrap;rounded=0;fontSize=12;spacing=0;spacingBottom=0;horizontal=1;" vertex="1" parent="1">
          <mxGeometry x="900" y="1315" width="90" height="50" as="geometry" />
        </mxCell>
        <mxCell id="F_IemNpZJ3v2NOJDD-CK-32" value="" style="rounded=0;whiteSpace=wrap;html=1;" vertex="1" parent="1">
          <mxGeometry x="130" y="1027.5" width="140" height="110" as="geometry" />
        </mxCell>
        <mxCell id="F_IemNpZJ3v2NOJDD-CK-33" value="&lt;h2&gt;Task&lt;/h2&gt;" style="text;html=1;align=center;verticalAlign=middle;whiteSpace=wrap;rounded=0;" vertex="1" parent="1">
          <mxGeometry x="170" y="1042.5" width="60" height="30" as="geometry" />
        </mxCell>
        <mxCell id="F_IemNpZJ3v2NOJDD-CK-34" value="&lt;p&gt;&lt;/p&gt;&lt;span style=&quot;background-color: transparent; color: light-dark(rgb(0, 0, 0), rgb(255, 255, 255));&quot;&gt;• Status ID&lt;br&gt;&lt;/span&gt;&lt;div&gt;&lt;span style=&quot;background-color: transparent; color: light-dark(rgb(0, 0, 0), rgb(255, 255, 255));&quot;&gt;• Assignee ID&lt;/span&gt;&lt;p&gt;&lt;/p&gt;&lt;/div&gt;" style="text;html=1;align=center;verticalAlign=middle;whiteSpace=wrap;rounded=0;" vertex="1" parent="1">
          <mxGeometry x="150" y="1087.5" width="100" height="30" as="geometry" />
        </mxCell>
        <mxCell id="F_IemNpZJ3v2NOJDD-CK-35" value="" style="rounded=0;whiteSpace=wrap;html=1;" vertex="1" parent="1">
          <mxGeometry x="560" y="1560" width="470" height="110" as="geometry" />
        </mxCell>
        <mxCell id="F_IemNpZJ3v2NOJDD-CK-36" value="&lt;h3&gt;Sprints&lt;/h3&gt;" style="text;html=1;align=center;verticalAlign=middle;whiteSpace=wrap;rounded=0;" vertex="1" parent="1">
          <mxGeometry x="570" y="1600" width="120" height="30" as="geometry" />
        </mxCell>
        <mxCell id="F_IemNpZJ3v2NOJDD-CK-37" value="&lt;p&gt;&lt;/p&gt;&lt;span style=&quot;background-color: transparent; color: light-dark(rgb(0, 0, 0), rgb(255, 255, 255));&quot;&gt;• User Story IDs&lt;br&gt;&lt;/span&gt;&lt;div&gt;&lt;span style=&quot;background-color: transparent; color: light-dark(rgb(0, 0, 0), rgb(255, 255, 255));&quot;&gt;• Issue IDs&lt;/span&gt;&lt;/div&gt;&lt;div&gt;&lt;span style=&quot;background-color: transparent; color: light-dark(rgb(0, 0, 0), rgb(255, 255, 255));&quot;&gt;• Generic Item IDs&lt;/span&gt;&lt;div&gt;&lt;div&gt;&lt;div&gt;&lt;div&gt;&lt;div&gt;&lt;p&gt;&lt;/p&gt;&lt;/div&gt;&lt;/div&gt;&lt;/div&gt;&lt;/div&gt;&lt;/div&gt;&lt;/div&gt;" style="text;html=1;align=left;verticalAlign=middle;whiteSpace=wrap;rounded=0;fontSize=12;spacing=0;spacingBottom=0;horizontal=1;" vertex="1" parent="1">
          <mxGeometry x="745" y="1590" width="105" height="50" as="geometry" />
        </mxCell>
        <mxCell id="F_IemNpZJ3v2NOJDD-CK-38" value="" style="rounded=0;whiteSpace=wrap;html=1;" vertex="1" parent="1">
          <mxGeometry x="1680" y="1230" width="140" height="80" as="geometry" />
        </mxCell>
        <mxCell id="F_IemNpZJ3v2NOJDD-CK-39" value="&lt;h3&gt;Tasks Per User&lt;/h3&gt;" style="text;html=1;align=center;verticalAlign=middle;whiteSpace=wrap;rounded=0;" vertex="1" parent="1">
          <mxGeometry x="1690" y="1240" width="120" height="30" as="geometry" />
        </mxCell>
        <mxCell id="F_IemNpZJ3v2NOJDD-CK-40" value="&lt;p&gt;&lt;/p&gt;&lt;span style=&quot;background-color: transparent; color: light-dark(rgb(0, 0, 0), rgb(255, 255, 255));&quot;&gt;• User ID&lt;/span&gt;&lt;div&gt;&lt;div&gt;&lt;div&gt;&lt;p&gt;&lt;/p&gt;&lt;/div&gt;&lt;/div&gt;&lt;/div&gt;" style="text;html=1;align=left;verticalAlign=middle;whiteSpace=wrap;rounded=0;fontSize=12;spacing=0;spacingBottom=0;horizontal=1;" vertex="1" parent="1">
          <mxGeometry x="1697.5" y="1272.5" width="105" height="27.5" as="geometry" />
        </mxCell>
        <mxCell id="F_IemNpZJ3v2NOJDD-CK-41" value="" style="rounded=0;whiteSpace=wrap;html=1;" vertex="1" parent="1">
          <mxGeometry x="1517.5" y="1442.5" width="140" height="50" as="geometry" />
        </mxCell>
        <mxCell id="F_IemNpZJ3v2NOJDD-CK-42" value="&lt;h3&gt;Requirement Focus Tags&lt;/h3&gt;" style="text;html=1;align=center;verticalAlign=middle;whiteSpace=wrap;rounded=0;" vertex="1" parent="1">
          <mxGeometry x="1527.5" y="1452.5" width="120" height="30" as="geometry" />
        </mxCell>
        <mxCell id="F_IemNpZJ3v2NOJDD-CK-43" value="" style="rounded=0;whiteSpace=wrap;html=1;" vertex="1" parent="1">
          <mxGeometry x="1517.5" y="1501.5" width="140" height="50" as="geometry" />
        </mxCell>
        <mxCell id="F_IemNpZJ3v2NOJDD-CK-44" value="&lt;h3&gt;Requirement Type Tags&lt;/h3&gt;" style="text;html=1;align=center;verticalAlign=middle;whiteSpace=wrap;rounded=0;" vertex="1" parent="1">
          <mxGeometry x="1527.5" y="1511.5" width="120" height="30" as="geometry" />
        </mxCell>
        <mxCell id="F_IemNpZJ3v2NOJDD-CK-45" value="" style="rounded=0;whiteSpace=wrap;html=1;" vertex="1" parent="1">
          <mxGeometry x="1682.5" y="1442.5" width="140" height="50" as="geometry" />
        </mxCell>
        <mxCell id="F_IemNpZJ3v2NOJDD-CK-46" value="&lt;h3&gt;Backlog Tags&lt;/h3&gt;" style="text;html=1;align=center;verticalAlign=middle;whiteSpace=wrap;rounded=0;" vertex="1" parent="1">
          <mxGeometry x="1692.5" y="1452.5" width="120" height="30" as="geometry" />
        </mxCell>
        <mxCell id="F_IemNpZJ3v2NOJDD-CK-47" value="" style="rounded=0;whiteSpace=wrap;html=1;" vertex="1" parent="1">
          <mxGeometry x="1682.5" y="1501.5" width="140" height="50" as="geometry" />
        </mxCell>
        <mxCell id="F_IemNpZJ3v2NOJDD-CK-48" value="&lt;h3&gt;Priority Types&lt;/h3&gt;" style="text;html=1;align=center;verticalAlign=middle;whiteSpace=wrap;rounded=0;" vertex="1" parent="1">
          <mxGeometry x="1692.5" y="1511.5" width="120" height="30" as="geometry" />
        </mxCell>
        <mxCell id="F_IemNpZJ3v2NOJDD-CK-49" value="" style="rounded=0;whiteSpace=wrap;html=1;" vertex="1" parent="1">
          <mxGeometry x="1222.5" y="1487.5" width="90" height="45" as="geometry" />
        </mxCell>
        <mxCell id="F_IemNpZJ3v2NOJDD-CK-50" value="Files" style="text;html=1;align=center;verticalAlign=middle;whiteSpace=wrap;rounded=0;" vertex="1" parent="1">
          <mxGeometry x="1237.5" y="1495" width="60" height="30" as="geometry" />
        </mxCell>
        <mxCell id="F_IemNpZJ3v2NOJDD-CK-51" value="" style="rounded=0;whiteSpace=wrap;html=1;" vertex="1" parent="1">
          <mxGeometry x="1682.5" y="1566.5" width="140" height="50" as="geometry" />
        </mxCell>
        <mxCell id="F_IemNpZJ3v2NOJDD-CK-52" value="&lt;h3&gt;Status Tabs&lt;/h3&gt;" style="text;html=1;align=center;verticalAlign=middle;whiteSpace=wrap;rounded=0;" vertex="1" parent="1">
          <mxGeometry x="1692.5" y="1576.5" width="120" height="30" as="geometry" />
        </mxCell>
        <mxCell id="F_IemNpZJ3v2NOJDD-CK-53" value="" style="rounded=0;whiteSpace=wrap;html=1;" vertex="1" parent="1">
          <mxGeometry x="-30" y="1162.5" width="460" height="110" as="geometry" />
        </mxCell>
        <mxCell id="F_IemNpZJ3v2NOJDD-CK-54" value="" style="rounded=0;whiteSpace=wrap;html=1;" vertex="1" parent="1">
          <mxGeometry x="-5" y="1212.5" width="90" height="45" as="geometry" />
        </mxCell>
        <mxCell id="F_IemNpZJ3v2NOJDD-CK-55" value="Tasks*" style="text;html=1;align=center;verticalAlign=middle;whiteSpace=wrap;rounded=0;" vertex="1" parent="1">
          <mxGeometry x="10" y="1220" width="60" height="30" as="geometry" />
        </mxCell>
        <mxCell id="F_IemNpZJ3v2NOJDD-CK-56" value="&lt;h3&gt;User Stories&lt;/h3&gt;" style="text;html=1;align=center;verticalAlign=middle;whiteSpace=wrap;rounded=0;" vertex="1" parent="1">
          <mxGeometry x="-20" y="1172.5" width="120" height="30" as="geometry" />
        </mxCell>
        <mxCell id="F_IemNpZJ3v2NOJDD-CK-57" value="&lt;p&gt;&lt;/p&gt;&lt;span style=&quot;background-color: transparent; color: light-dark(rgb(0, 0, 0), rgb(255, 255, 255));&quot;&gt;• Epic IDs&lt;/span&gt;&lt;br&gt;&lt;span style=&quot;background-color: transparent; color: light-dark(rgb(0, 0, 0), rgb(255, 255, 255));&quot;&gt;• Dependency&lt;/span&gt;&lt;span style=&quot;background-color: transparent; color: light-dark(rgb(0, 0, 0), rgb(255, 255, 255));&quot;&gt;&amp;nbsp;IDs&lt;/span&gt;&lt;div&gt;&lt;div&gt;&lt;p&gt;&lt;/p&gt;&lt;/div&gt;&lt;/div&gt;" style="text;html=1;align=left;verticalAlign=middle;whiteSpace=wrap;rounded=0;fontSize=12;spacing=0;spacingBottom=0;horizontal=1;" vertex="1" parent="1">
          <mxGeometry x="155" y="1192.5" width="105" height="50" as="geometry" />
        </mxCell>
        <mxCell id="F_IemNpZJ3v2NOJDD-CK-58" value="&lt;p&gt;&lt;/p&gt;&lt;span style=&quot;background-color: transparent; color: light-dark(rgb(0, 0, 0), rgb(255, 255, 255));&quot;&gt;• Required By IDs&lt;/span&gt;&lt;div&gt;&lt;span style=&quot;background-color: transparent; color: light-dark(rgb(0, 0, 0), rgb(255, 255, 255));&quot;&gt;• T&lt;/span&gt;&lt;span style=&quot;background-color: transparent;&quot;&gt;ag IDs&lt;/span&gt;&lt;div&gt;&lt;div&gt;&lt;p&gt;&lt;/p&gt;&lt;/div&gt;&lt;/div&gt;&lt;/div&gt;" style="text;html=1;align=left;verticalAlign=middle;whiteSpace=wrap;rounded=0;fontSize=12;spacing=0;spacingBottom=0;horizontal=1;" vertex="1" parent="1">
          <mxGeometry x="300" y="1192.5" width="105" height="50" as="geometry" />
        </mxCell>
        <mxCell id="F_IemNpZJ3v2NOJDD-CK-59" value="" style="rounded=0;whiteSpace=wrap;html=1;" vertex="1" parent="1">
          <mxGeometry x="-30" y="1296.5" width="460" height="110" as="geometry" />
        </mxCell>
        <mxCell id="F_IemNpZJ3v2NOJDD-CK-60" value="" style="rounded=0;whiteSpace=wrap;html=1;" vertex="1" parent="1">
          <mxGeometry x="-5" y="1346.5" width="90" height="45" as="geometry" />
        </mxCell>
        <mxCell id="F_IemNpZJ3v2NOJDD-CK-61" value="Tasks*" style="text;html=1;align=center;verticalAlign=middle;whiteSpace=wrap;rounded=0;" vertex="1" parent="1">
          <mxGeometry x="10" y="1354" width="60" height="30" as="geometry" />
        </mxCell>
        <mxCell id="F_IemNpZJ3v2NOJDD-CK-62" value="&lt;h3&gt;Issues&lt;/h3&gt;" style="text;html=1;align=center;verticalAlign=middle;whiteSpace=wrap;rounded=0;" vertex="1" parent="1">
          <mxGeometry x="-20" y="1306.5" width="120" height="30" as="geometry" />
        </mxCell>
        <mxCell id="F_IemNpZJ3v2NOJDD-CK-63" value="&lt;p&gt;&lt;/p&gt;&lt;span style=&quot;background-color: transparent; color: light-dark(rgb(0, 0, 0), rgb(255, 255, 255));&quot;&gt;• R&lt;/span&gt;&lt;span style=&quot;background-color: transparent;&quot;&gt;elated User Story ID&amp;nbsp;&lt;/span&gt;&lt;div&gt;&lt;div&gt;&lt;div&gt;&lt;div&gt;&lt;div&gt;&lt;p&gt;&lt;/p&gt;&lt;/div&gt;&lt;/div&gt;&lt;/div&gt;&lt;/div&gt;&lt;/div&gt;" style="text;html=1;align=left;verticalAlign=middle;whiteSpace=wrap;rounded=0;fontSize=12;spacing=0;spacingBottom=0;horizontal=1;" vertex="1" parent="1">
          <mxGeometry x="155" y="1326.5" width="105" height="50" as="geometry" />
        </mxCell>
        <mxCell id="F_IemNpZJ3v2NOJDD-CK-64" value="&lt;p&gt;&lt;/p&gt;&lt;span style=&quot;color: light-dark(rgb(0, 0, 0), rgb(255, 255, 255)); background-color: transparent;&quot;&gt;• T&lt;/span&gt;&lt;span style=&quot;background-color: transparent;&quot;&gt;ag IDs&lt;/span&gt;&lt;div&gt;&lt;div&gt;&lt;div&gt;&lt;div&gt;&lt;div&gt;&lt;p&gt;&lt;/p&gt;&lt;/div&gt;&lt;/div&gt;&lt;/div&gt;&lt;/div&gt;&lt;/div&gt;" style="text;html=1;align=left;verticalAlign=middle;whiteSpace=wrap;rounded=0;fontSize=12;spacing=0;spacingBottom=0;horizontal=1;" vertex="1" parent="1">
          <mxGeometry x="295" y="1326.5" width="105" height="50" as="geometry" />
        </mxCell>
        <mxCell id="F_IemNpZJ3v2NOJDD-CK-65" value="" style="rounded=0;whiteSpace=wrap;html=1;" vertex="1" parent="1">
          <mxGeometry x="-30" y="1436.5" width="460" height="110" as="geometry" />
        </mxCell>
        <mxCell id="F_IemNpZJ3v2NOJDD-CK-66" value="" style="rounded=0;whiteSpace=wrap;html=1;" vertex="1" parent="1">
          <mxGeometry x="-5" y="1486.5" width="90" height="45" as="geometry" />
        </mxCell>
        <mxCell id="F_IemNpZJ3v2NOJDD-CK-67" value="Tasks*" style="text;html=1;align=center;verticalAlign=middle;whiteSpace=wrap;rounded=0;" vertex="1" parent="1">
          <mxGeometry x="10" y="1494" width="60" height="30" as="geometry" />
        </mxCell>
        <mxCell id="F_IemNpZJ3v2NOJDD-CK-68" value="&lt;h3&gt;Generic Items&lt;/h3&gt;" style="text;html=1;align=center;verticalAlign=middle;whiteSpace=wrap;rounded=0;" vertex="1" parent="1">
          <mxGeometry x="-20" y="1446.5" width="120" height="30" as="geometry" />
        </mxCell>
        <mxCell id="F_IemNpZJ3v2NOJDD-CK-69" value="&lt;p&gt;&lt;/p&gt;&lt;span style=&quot;background-color: transparent; color: light-dark(rgb(0, 0, 0), rgb(255, 255, 255));&quot;&gt;• Tag IDs&lt;/span&gt;&lt;div&gt;&lt;div&gt;&lt;div&gt;&lt;div&gt;&lt;div&gt;&lt;p&gt;&lt;/p&gt;&lt;/div&gt;&lt;/div&gt;&lt;/div&gt;&lt;/div&gt;&lt;/div&gt;" style="text;html=1;align=left;verticalAlign=middle;whiteSpace=wrap;rounded=0;fontSize=12;spacing=0;spacingBottom=0;horizontal=1;" vertex="1" parent="1">
          <mxGeometry x="155" y="1466.5" width="105" height="50" as="geometry" />
        </mxCell>
        <mxCell id="F_IemNpZJ3v2NOJDD-CK-70" value="&lt;h1&gt;Abstracted items*&lt;/h1&gt;" style="text;html=1;align=center;verticalAlign=middle;whiteSpace=wrap;rounded=0;" vertex="1" parent="1">
          <mxGeometry x="70" y="960" width="270" height="30" as="geometry" />
        </mxCell>
        <mxCell id="F_IemNpZJ3v2NOJDD-CK-71" value="" style="rounded=0;whiteSpace=wrap;html=1;" vertex="1" parent="1">
          <mxGeometry x="727.5" y="1472.5" width="140" height="60" as="geometry" />
        </mxCell>
        <mxCell id="F_IemNpZJ3v2NOJDD-CK-72" value="&lt;h3&gt;Issues*&lt;/h3&gt;" style="text;html=1;align=center;verticalAlign=middle;whiteSpace=wrap;rounded=0;" vertex="1" parent="1">
          <mxGeometry x="757.5" y="1487.5" width="80" height="30" as="geometry" />
        </mxCell>
        <mxCell id="F_IemNpZJ3v2NOJDD-CK-73" value="" style="rounded=0;whiteSpace=wrap;html=1;" vertex="1" parent="1">
          <mxGeometry x="890" y="1472.5" width="140" height="60" as="geometry" />
        </mxCell>
        <mxCell id="F_IemNpZJ3v2NOJDD-CK-74" value="&lt;h3&gt;Generic Items*&lt;/h3&gt;" style="text;html=1;align=center;verticalAlign=middle;whiteSpace=wrap;rounded=0;" vertex="1" parent="1">
          <mxGeometry x="900" y="1487.5" width="120" height="30" as="geometry" />
        </mxCell>
        <mxCell id="F_IemNpZJ3v2NOJDD-CK-75" value="" style="rounded=0;whiteSpace=wrap;html=1;" vertex="1" parent="1">
          <mxGeometry x="560" y="1472.5" width="140" height="60" as="geometry" />
        </mxCell>
        <mxCell id="F_IemNpZJ3v2NOJDD-CK-76" value="&lt;h3&gt;User Stories*&lt;/h3&gt;" style="text;html=1;align=center;verticalAlign=middle;whiteSpace=wrap;rounded=0;" vertex="1" parent="1">
          <mxGeometry x="570" y="1487.5" width="120" height="30" as="geometry" />
        </mxCell>
        <mxCell id="F_IemNpZJ3v2NOJDD-CK-77" value="" style="rounded=0;whiteSpace=wrap;html=1;" vertex="1" parent="1">
          <mxGeometry x="1355" y="1230" width="140" height="60" as="geometry" />
        </mxCell>
        <mxCell id="F_IemNpZJ3v2NOJDD-CK-78" value="&lt;h3&gt;Issues*&lt;/h3&gt;" style="text;html=1;align=center;verticalAlign=middle;whiteSpace=wrap;rounded=0;" vertex="1" parent="1">
          <mxGeometry x="1385" y="1245" width="80" height="30" as="geometry" />
        </mxCell>
        <mxCell id="F_IemNpZJ3v2NOJDD-CK-79" value="" style="rounded=0;whiteSpace=wrap;html=1;" vertex="1" parent="1">
          <mxGeometry x="1517.5" y="1230" width="140" height="60" as="geometry" />
        </mxCell>
        <mxCell id="F_IemNpZJ3v2NOJDD-CK-80" value="&lt;h3&gt;Generic Items*&lt;/h3&gt;" style="text;html=1;align=center;verticalAlign=middle;whiteSpace=wrap;rounded=0;" vertex="1" parent="1">
          <mxGeometry x="1527.5" y="1245" width="120" height="30" as="geometry" />
        </mxCell>
        <mxCell id="F_IemNpZJ3v2NOJDD-CK-81" value="" style="rounded=0;whiteSpace=wrap;html=1;" vertex="1" parent="1">
          <mxGeometry x="1187.5" y="1230" width="140" height="60" as="geometry" />
        </mxCell>
        <mxCell id="F_IemNpZJ3v2NOJDD-CK-82" value="&lt;h3&gt;User Stories*&lt;/h3&gt;" style="text;html=1;align=center;verticalAlign=middle;whiteSpace=wrap;rounded=0;" vertex="1" parent="1">
          <mxGeometry x="1197.5" y="1245" width="120" height="30" as="geometry" />
        </mxCell>
        <mxCell id="F_IemNpZJ3v2NOJDD-CK-86" value="" style="rounded=0;whiteSpace=wrap;html=1;" vertex="1" parent="1">
          <mxGeometry x="550" y="192.5" width="140" height="77.5" as="geometry" />
        </mxCell>
        <mxCell id="F_IemNpZJ3v2NOJDD-CK-87" value="&lt;h2&gt;users2&lt;/h2&gt;" style="text;html=1;align=center;verticalAlign=middle;whiteSpace=wrap;rounded=0;" vertex="1" parent="1">
          <mxGeometry x="590" y="217.5" width="60" height="30" as="geometry" />
        </mxCell>
        <mxCell id="F_IemNpZJ3v2NOJDD-CK-89" value="" style="rounded=0;whiteSpace=wrap;html=1;" vertex="1" parent="1">
          <mxGeometry x="2010" y="60" width="140" height="120" as="geometry" />
        </mxCell>
        <mxCell id="F_IemNpZJ3v2NOJDD-CK-90" value="&lt;h1&gt;Users1&lt;/h1&gt;" style="text;html=1;align=center;verticalAlign=middle;whiteSpace=wrap;rounded=0;" vertex="1" parent="1">
          <mxGeometry x="2050" y="80" width="60" height="30" as="geometry" />
        </mxCell>
        <mxCell id="F_IemNpZJ3v2NOJDD-CK-91" value="&lt;p&gt;&lt;/p&gt;&lt;span style=&quot;background-color: transparent; color: light-dark(rgb(0, 0, 0), rgb(255, 255, 255));&quot;&gt;• createdAt: Date&lt;/span&gt;&lt;div&gt;&lt;span style=&quot;background-color: transparent; color: light-dark(rgb(0, 0, 0), rgb(255, 255, 255));&quot;&gt;• uid: Number&lt;/span&gt;&lt;/div&gt;" style="text;html=1;align=center;verticalAlign=middle;whiteSpace=wrap;rounded=0;" vertex="1" parent="1">
          <mxGeometry x="2030" y="120" width="100" height="30" as="geometry" />
        </mxCell>
        <mxCell id="F_IemNpZJ3v2NOJDD-CK-94" value="" style="rounded=0;whiteSpace=wrap;html=1;" vertex="1" parent="1">
          <mxGeometry x="730" y="192.5" width="140" height="77.5" as="geometry" />
        </mxCell>
        <mxCell id="F_IemNpZJ3v2NOJDD-CK-95" value="&lt;h2&gt;activities&lt;/h2&gt;" style="text;html=1;align=center;verticalAlign=middle;whiteSpace=wrap;rounded=0;" vertex="1" parent="1">
          <mxGeometry x="770" y="217.5" width="60" height="30" as="geometry" />
        </mxCell>
        <mxCell id="F_IemNpZJ3v2NOJDD-CK-96" value="" style="rounded=0;whiteSpace=wrap;html=1;" vertex="1" parent="1">
          <mxGeometry x="550" y="328.75" width="570" height="361.25" as="geometry" />
        </mxCell>
        <mxCell id="F_IemNpZJ3v2NOJDD-CK-97" value="&lt;h2&gt;settings&lt;/h2&gt;" style="text;html=1;align=center;verticalAlign=middle;whiteSpace=wrap;rounded=0;" vertex="1" parent="1">
          <mxGeometry x="810" y="350" width="60" height="30" as="geometry" />
        </mxCell>
        <mxCell id="F_IemNpZJ3v2NOJDD-CK-98" value="" style="rounded=0;whiteSpace=wrap;html=1;" vertex="1" parent="1">
          <mxGeometry x="900" y="191.5" width="140" height="77.5" as="geometry" />
        </mxCell>
        <mxCell id="F_IemNpZJ3v2NOJDD-CK-99" value="&lt;h2&gt;epics&lt;/h2&gt;" style="text;html=1;align=center;verticalAlign=middle;whiteSpace=wrap;rounded=0;" vertex="1" parent="1">
          <mxGeometry x="940" y="216.5" width="60" height="30" as="geometry" />
        </mxCell>
        <mxCell id="F_IemNpZJ3v2NOJDD-CK-100" value="" style="rounded=0;whiteSpace=wrap;html=1;" vertex="1" parent="1">
          <mxGeometry x="1067.5" y="191.5" width="140" height="77.5" as="geometry" />
        </mxCell>
        <mxCell id="F_IemNpZJ3v2NOJDD-CK-101" value="&lt;h2&gt;userStories&lt;/h2&gt;" style="text;html=1;align=center;verticalAlign=middle;whiteSpace=wrap;rounded=0;" vertex="1" parent="1">
          <mxGeometry x="1107.5" y="216.5" width="60" height="30" as="geometry" />
        </mxCell>
        <mxCell id="F_IemNpZJ3v2NOJDD-CK-102" value="" style="rounded=0;whiteSpace=wrap;html=1;" vertex="1" parent="1">
          <mxGeometry x="570" y="400" width="230" height="77.5" as="geometry" />
        </mxCell>
        <mxCell id="F_IemNpZJ3v2NOJDD-CK-103" value="&lt;h2&gt;requirementFocusTags&lt;/h2&gt;" style="text;html=1;align=center;verticalAlign=middle;whiteSpace=wrap;rounded=0;" vertex="1" parent="1">
          <mxGeometry x="655" y="423.75" width="60" height="30" as="geometry" />
        </mxCell>
        <mxCell id="F_IemNpZJ3v2NOJDD-CK-104" value="" style="rounded=0;whiteSpace=wrap;html=1;" vertex="1" parent="1">
          <mxGeometry x="570" y="494" width="230" height="77.5" as="geometry" />
        </mxCell>
        <mxCell id="F_IemNpZJ3v2NOJDD-CK-105" value="&lt;h2&gt;requirementTypeTags&lt;/h2&gt;" style="text;html=1;align=center;verticalAlign=middle;whiteSpace=wrap;rounded=0;" vertex="1" parent="1">
          <mxGeometry x="655" y="516.5" width="60" height="30" as="geometry" />
        </mxCell>
        <mxCell id="F_IemNpZJ3v2NOJDD-CK-106" value="" style="rounded=0;whiteSpace=wrap;html=1;" vertex="1" parent="1">
          <mxGeometry x="570" y="585" width="230" height="77.5" as="geometry" />
        </mxCell>
        <mxCell id="F_IemNpZJ3v2NOJDD-CK-107" value="&lt;h2&gt;priorityTags&lt;/h2&gt;" style="text;html=1;align=center;verticalAlign=middle;whiteSpace=wrap;rounded=0;" vertex="1" parent="1">
          <mxGeometry x="655" y="607.5" width="60" height="30" as="geometry" />
        </mxCell>
        <mxCell id="F_IemNpZJ3v2NOJDD-CK-108" value="" style="rounded=0;whiteSpace=wrap;html=1;" vertex="1" parent="1">
          <mxGeometry x="870" y="400" width="230" height="77.5" as="geometry" />
        </mxCell>
        <mxCell id="F_IemNpZJ3v2NOJDD-CK-109" value="&lt;h2&gt;backlogTags&lt;/h2&gt;" style="text;html=1;align=center;verticalAlign=middle;whiteSpace=wrap;rounded=0;" vertex="1" parent="1">
          <mxGeometry x="955" y="422.5" width="60" height="30" as="geometry" />
        </mxCell>
        <mxCell id="F_IemNpZJ3v2NOJDD-CK-110" value="" style="rounded=0;whiteSpace=wrap;html=1;" vertex="1" parent="1">
          <mxGeometry x="870" y="492.75" width="230" height="77.5" as="geometry" />
        </mxCell>
        <mxCell id="F_IemNpZJ3v2NOJDD-CK-111" value="&lt;h2&gt;statusTags&lt;/h2&gt;" style="text;html=1;align=center;verticalAlign=middle;whiteSpace=wrap;rounded=0;" vertex="1" parent="1">
          <mxGeometry x="955" y="515.25" width="60" height="30" as="geometry" />
        </mxCell>
        <mxCell id="F_IemNpZJ3v2NOJDD-CK-112" value="" style="rounded=0;whiteSpace=wrap;html=1;" vertex="1" parent="1">
          <mxGeometry x="870" y="586.5" width="230" height="77.5" as="geometry" />
        </mxCell>
        <mxCell id="F_IemNpZJ3v2NOJDD-CK-113" value="&lt;h2&gt;userTypes&lt;/h2&gt;" style="text;html=1;align=center;verticalAlign=middle;whiteSpace=wrap;rounded=0;" vertex="1" parent="1">
          <mxGeometry x="955" y="609" width="60" height="30" as="geometry" />
        </mxCell>
        <mxCell id="F_IemNpZJ3v2NOJDD-CK-114" value="" style="rounded=0;whiteSpace=wrap;html=1;" vertex="1" parent="1">
          <mxGeometry x="1237.5" y="191.5" width="140" height="77.5" as="geometry" />
        </mxCell>
        <mxCell id="F_IemNpZJ3v2NOJDD-CK-115" value="&lt;h2&gt;tasks&lt;/h2&gt;" style="text;html=1;align=center;verticalAlign=middle;whiteSpace=wrap;rounded=0;" vertex="1" parent="1">
          <mxGeometry x="1277.5" y="216.5" width="60" height="30" as="geometry" />
        </mxCell>
        <mxCell id="F_IemNpZJ3v2NOJDD-CK-116" value="" style="rounded=0;whiteSpace=wrap;html=1;" vertex="1" parent="1">
          <mxGeometry x="1410" y="191.5" width="140" height="77.5" as="geometry" />
        </mxCell>
        <mxCell id="F_IemNpZJ3v2NOJDD-CK-117" value="&lt;h2&gt;requirements&lt;/h2&gt;" style="text;html=1;align=center;verticalAlign=middle;whiteSpace=wrap;rounded=0;" vertex="1" parent="1">
          <mxGeometry x="1450" y="216.5" width="60" height="30" as="geometry" />
        </mxCell>
        <mxCell id="F_IemNpZJ3v2NOJDD-CK-118" value="" style="rounded=0;whiteSpace=wrap;html=1;" vertex="1" parent="1">
          <mxGeometry x="1590" y="191.5" width="160" height="77.5" as="geometry" />
        </mxCell>
        <mxCell id="F_IemNpZJ3v2NOJDD-CK-119" value="&lt;h2&gt;sprints&lt;/h2&gt;" style="text;html=1;align=center;verticalAlign=middle;whiteSpace=wrap;rounded=0;" vertex="1" parent="1">
          <mxGeometry x="1640" y="216.5" width="60" height="30" as="geometry" />
        </mxCell>
        <mxCell id="F_IemNpZJ3v2NOJDD-CK-120" value="" style="rounded=0;whiteSpace=wrap;html=1;" vertex="1" parent="1">
          <mxGeometry x="1590" y="305" width="160" height="77.5" as="geometry" />
        </mxCell>
        <mxCell id="F_IemNpZJ3v2NOJDD-CK-121" value="&lt;h2&gt;sprintSnapshots&lt;/h2&gt;" style="text;html=1;align=center;verticalAlign=middle;whiteSpace=wrap;rounded=0;" vertex="1" parent="1">
          <mxGeometry x="1640" y="330" width="60" height="30" as="geometry" />
        </mxCell>
        <mxCell id="F_IemNpZJ3v2NOJDD-CK-122" value="" style="rounded=0;whiteSpace=wrap;html=1;" vertex="1" parent="1">
          <mxGeometry x="1237.5" y="302.5" width="140" height="77.5" as="geometry" />
        </mxCell>
        <mxCell id="F_IemNpZJ3v2NOJDD-CK-123" value="&lt;h2&gt;issues&lt;/h2&gt;" style="text;html=1;align=center;verticalAlign=middle;whiteSpace=wrap;rounded=0;" vertex="1" parent="1">
          <mxGeometry x="1277.5" y="327.5" width="60" height="30" as="geometry" />
        </mxCell>
      </root>
    </mxGraphModel>
  </diagram>
</mxfile>
